# xmcd
#
# Track frame offsets:
#	150
#	11866
#	21640
#	31791
#	43344
#	56495
#	68260
#	81043
#	95729
#	111992
#
# Disc length: 1634 seconds
#
# Revision: 1
# Processed by: cddbd v1.5.2PL0 Copyright (c) Steve Scherf et al.
# Submitted via: audiograbber 1.83.01
#
DISCID=8106600a
DTITLE=Batmobile and Peter Pan Speedrock - Cross Contamination
DYEAR=2009
DGENRE=Rock
TTITLE0=Batmobile - Hellalujah
TTITLE1=Batmobile - Go Satan Go
TTITLE2=Batmobile - Killerspeed
TTITLE3=Batmobile - Big Toy
TTITLE4=Batmobile - Straight Back To Hormoneville
TTITLE5=Peter Pan Speedrock - Transsylvanian Express
TTITLE6=Peter Pan Speedrock - Dead (I want them when they are dead)
TTITLE7=Peter Pan Speedrock - Dynamite
TTITLE8=Peter Pan Speedrock - Shoot shoot
TTITLE9=Peter Pan Speedrock - Mission Impossible
EXTD=
EXTT0=
EXTT1=
EXTT2=
EXTT3=
EXTT4=
EXTT5=
EXTT6=
EXTT7=
EXTT8=
EXTT9=
PLAYORDER=
